<svg id="Layer_1" data-name="Layer 1" xmlns="http://www.w3.org/2000/svg" viewBox="0 0 339.19 434.83"><defs><style>.cls-1{fill:#db7f23;}.cls-2{fill:#f8a136;}.cls-3,.cls-4{fill:#ea8e2a;}.cls-4{fill-rule:evenodd;}.cls-5{fill:#ffb25f;}.cls-6{fill:none;}.cls-7{fill:#060068;}.cls-8{fill:#fff;}.cls-9{fill:#04def9;}.cls-10{fill:#0454f9;}</style></defs><title>cortney-portfolio</title><path class="cls-1" d="M206.73,345.75c-7.7.87-17.38,2.37-25.21,1-2.24-.38-11.44-5.09-12.12-5-2.56.41-6.54,7.34-9.33,8.56-5.44,2.39-14.17,1.73-20,1.31-17.9-1.29-22.43-15-7.22-26.67,6.72-5.14,11.85,2.41,12.81-11,.18-2.49-2.73-8-3.15-11.5-3.86-31.69,18.41-52.1,18.55-55.36"/><path class="cls-2" d="M317.06,329c-6.72-5.14-14.2,6.53-15.17-6.84-.18-2.49,5.13-12.11,5.51-15.62.35-3.27-.09-6.76-.23-10-.56-12.55-.23-35.33-11.13-44.25a19.12,19.12,0,0,1,7.05-1.15c-1.69-7.59-3.44-19.85-9.4-25.46,3.07.32,4.06-1.64,7.44.72-.73-7.27-14-26.88-1.83-23.67-2.11-6.78-5.48-15.42-11.74-19.35,3.08-1.15,5.95-1.78,9,.38-4.82-22.31-15.76-45.29-31.24-62.29-11.9-13.06-26-11.46-42.51-9.8-13.92,1.39-29.22,2.79-42.72,6.79-12.84,3.8-15.11,10.93-17.83,23.32-13.37,60.94,1.24,124.38-15.66,184.78-3.89,13.9-36.87,42.19-12,48.11,6.3,1.5,13,.19,19.78-.13,17.41-.82,20.18-17.38,26-34a48.67,48.67,0,0,0,14.58,3.55c7.81.66,40.69,4.88,48.17,5.73,7.7.87,17.38,2.37,25.21,1,2.24-.38,11.44-5.09,12.12-5,2.56.41,6.54,7.34,9.33,8.56,5.44,2.39,14.17,1.73,20,1.31C327.73,354.41,332.27,340.65,317.06,329Z"/><path class="cls-1" d="M309.83,355.7c17.9-1.29,22.43-15,7.22-26.67-5-3.85-10.48,1.71-13.32-.84-4.91-.31-14.93,18.61-23.19,17.64-14.15-1.66-26.86-23.42-26.86-23.42s-59.75-9-64.42-2.53-9.15,19.4-10.26,24.91c0,0,1.74-1,26.27,1,18.05,1.52,30.47,3.11,37.95,4,7.7.87,17.38,2.37,25.21,1,2.24-.38,11.44-5.09,12.12-5,2.56.41,6.54,7.34,9.33,8.56C295.32,356.77,304,356.11,309.83,355.7Z"/><path class="cls-3" d="M275.31,203.16c-.61-2.32,7.18-12.62,7.18-12.62-1.85-1.87-8.37-8-9.06-11.45-.49-2.47,5.2-7,5.2-7-.47-1.91-5.17-8.62-5.66-10.53-.28-1.08.5-3.09,1.42-5a128.9,128.9,0,0,0-5.19-11.88c-1.74-1.22-3.15-2.38-3.22-3.38a2.17,2.17,0,0,1,.56-1.42,35.62,35.62,0,0,0-11.43-11.65c-26.88-9.65-56.47-12.6-84.78-14.83-1.28-.1-1.28,0-.93,0,.89.08,1,.17,1,.41.79.49,2,1.62,1.26,4.18-.25.91-2.25,1.45-3.52,4.7l-.26,1c.17.87,1.1,5.34.68,6.83-.55,2-3.88,6.39-3.88,6.39.29,2.79.29,11.72-.5,12.58s-2.49,5.74-3,8.84a50.36,50.36,0,0,1,.64,8c-.5,5.64-1.29,11.65,0,17.34a15,15,0,0,1,3.75,4.53,57.2,57.2,0,0,0,5.74,11.28,36.72,36.72,0,0,1,4.76,7l7,8.31a19,19,0,0,1,2.11,4c4.69,5.63,9.61,11.08,14.8,16.26a30,30,0,0,1,2.34,8.43c2.42,3.62,3.58,5.4,5.67,8.84,0,0-1,10.6-2.88,13.76a92.55,92.55,0,0,1,0,11.09c-1.58,3.48-2.39,5.28-4,8.77-.32.82.12,5.84.12,5.84-1.46,1.6-2.16,2.35-3.44,3.65-.66,3.53-1,5.27-1.81,8.65v0s-1.14-.3-2.34,2.57a85.17,85.17,0,0,0-2.7,9.08l0,.09c-.92,1.29-1.19,1.59-1.2,1.19-.13.85-.43.88.6,2.4a45.48,45.48,0,0,0,6.3,1.47c1.59,2.4,2.4,3.57,4.06,5.87,2.36-.41,3.59-.68,6.09-1.33a126.62,126.62,0,0,0,12.92,8.21s2.28-7,5.78-3.38c0,0,3.8,6.88,5.91,7,0,0,3.41-7.12,6.09-4.38l4.44,4.18h0c1.17-3.77,2.86-8.95,4.39-11.15a72.14,72.14,0,0,0,7.27-7.09s2.51-11.06,3-13.09,3.77-8,3.77-8a88.11,88.11,0,0,0,6.1-8.16,81.35,81.35,0,0,0-.8-19.5,27,27,0,0,0,6.56-3.67c-.73-6-2.7-11.74-4.36-17.52,0,0,5.58-5,7.33-7.85,0,0-3.41-12.87-3.95-14.84,3.55-4.75,5.5-7.58,9.16-13.39A27.15,27.15,0,0,1,275.31,203.16Z"/><path class="cls-1" d="M287.24,234c-3.33,18.57-6.56,36.28-7.29,39.85-6.73,33.2-15.42,66.69-14.47,71.12.32,1.51.76,3.68,1.23,6.1.58-.07,1.16-.15,1.73-.24.12,0,7.1-2.59,7.15-3.28-.44-2.27-.85-3.14-1.16-4.58-.77-3.6,13.08-74.76,10.61-77.09C288.1,266.19,288.67,237,287.24,234Z"/><path class="cls-1" d="M203.65,145.73c.3-6.34,6.25-6.86,13.55-6.51s13.18,1.41,12.88,7.76-6.46,11.21-13.75,10.86S203.35,152.07,203.65,145.73Z"/><path class="cls-2" d="M246.8,152c27.49.52,39.66-38.86,36.49-53.59-3.39-15.78-.31-15.15,1.5-20.94,9.26-29.64,18.85-74.94,8.37-71.55-2.46.8-8.29,4.42-10.23,5.77-8.59,6-28.47,25.67-28.47,25.67-3.31,3.38-16,3.85-20.93,2.9A70.27,70.27,0,0,0,223.39,39c-4.37-.21-17.16-.36-21.53.23-3.22.44-10.26-3.72-11-4.27,0,0-46.65-42.52-55.43-33.79l-.21.57a11.6,11.6,0,0,0-.55,6.13l12.75,43.7c1.34,4.59,5.57,11,5.45,15.74,0,0-1.21,23.46-1.26,23.73-3.83,17.88,6.68,49.92,37.63,57.19l23.1.74,4.89-4Z"/><path class="cls-3" d="M190.9,135.09a10.13,10.13,0,0,0-.18,8.13c1.77,4.47,6,7.53,7.15,7.89a15.79,15.79,0,0,0,14.07-1.8c4.1-4.65,4.74-4.69,5.29-4.65s1.9.1,4.44,4.21c3.51,2.68,8.4,4,14.55,4a10.22,10.22,0,0,0,6.7-4.56c1.34-2.2,1.47-4.79.39-7.71l-9.95-7.83a35.05,35.05,0,0,0-29.87-3.35Z"/><path class="cls-4" d="M248.41,90.34c-6.72,7.59-7.08,7-12.65,8.9a8.54,8.54,0,0,0-4.67,4h0a9,9,0,0,0-.57,1.23,34.58,34.58,0,0,0-1.71,17.33c.52,3.33,1,6.27,1,6.27.47,3-2.23,5.53-5.65,5.37l-14.85-.7c-3.42-.16-5.87-3-5.12-5.87l1.28-4.58a34.63,34.63,0,0,0-.42-20c-.08-.26-.18-.52-.29-.77l-.33-.79a8.57,8.57,0,0,0-3.41-4l-.25-.16a8.51,8.51,0,0,0-1.83-.85c-3-1-12.11-4.2-12.78-7.19"/><path class="cls-5" d="M197.11,89.23l-3.44-.83c-5.07-1.22-16.76.24-16.81,1.67L178,96.18c-.17,4.65,5.22,8.9,11.93,9.43l4,.32c4.63.36,8.86-1.16,10.84-3.92l.37-.52C208.44,97,204.52,91,197.11,89.23Z"/><path class="cls-3" d="M157.82,109.3a2,2,0,0,1-2.81-2.51l4.25-10.1a2,2,0,0,1,.24-.42,7,7,0,0,1,5.53-2.8L181.61,87a2,2,0,1,1,1.45,3.71l-16.95,6.64a2,2,0,0,1-.84.13,3,3,0,0,0-2.44,1l-4.14,9.85A2,2,0,0,1,157.82,109.3Z"/><path class="cls-3" d="M279.19,115.11a2,2,0,0,1-.37.16,2,2,0,0,1-2.5-1.3l-3.2-10.19a3,3,0,0,0-2.33-1.25l-3.17-.11a7,7,0,0,1-3.57-1.13,2,2,0,0,1-.24-.19l-10.43-9.37a2,2,0,1,1,2.66-3L266.34,98a3,3,0,0,0,1.42.42l3.17.11a7,7,0,0,1,5.71,3.34,2,2,0,0,1,.2.44l3.28,10.45A2,2,0,0,1,279.19,115.11Z"/><path class="cls-1" d="M245.88,43.14c2.05-.38-3.35,2.7-4.18,4.94a.77.77,0,0,1-1.45.07l-4.17-5.07S242.29,43.81,245.88,43.14Z"/><path class="cls-3" d="M197.11,89.23,198.83,65a8.54,8.54,0,0,1,1.53-4.31c2.59-3.68,8.24-11.72,11.4-16.1a8.49,8.49,0,0,1,6.08-3.5c.9-.08,1.9-.15,2.94-.18a8.2,8.2,0,0,1,1.62.13l1.53.27A8.57,8.57,0,0,1,230.16,46l1.75,3.56q.12.24.22.49l6.31,15.16a8.57,8.57,0,0,1,.39,5.43l-6,23.29"/><path class="cls-3" d="M179.68,37.43s-31.29-23.92-32.84-22.77h0A5.06,5.06,0,0,0,145.12,20c1.06,4.17,6.94,14.52,9.69,24.86,2.14,8.06,3,9.94,4.44,14.41a1.87,1.87,0,0,0,3.36.48c5.59-9.21,6.81-10.08,16.57-16.33C181.48,41.92,181.84,39.4,179.68,37.43Z"/><path class="cls-5" d="M232.23,64.93c.11-3.05.45-6.08.86-9.11s1-6,1.6-9A91.27,91.27,0,0,1,237.09,38c.51-1.44,1-2.89,1.59-4.3s1.25-2.79,2-4.14c-.47,1.45-1,2.86-1.43,4.33s-.86,2.91-1.27,4.36q-1.15,4.39-2.13,8.83C235.15,50,234.57,53,234,56Z"/><path class="cls-5" d="M230.64,64.85c.11-5.19.58-10.34,1.13-15.48S233,39.1,234,34c-.11,5.19-.58,10.34-1.13,15.48S231.66,59.76,230.64,64.85Z"/><path class="cls-1" d="M236.46,49.93c-.3-.45-.73-.37-1,.2-9.16,17.72-9.38,24.18-9.33,25.38L227.32,93c.05.75.35,1.29.72,1.31h0c.38,0,.73-.59.82-1.37l2.17-17.58L236.68,52A2.84,2.84,0,0,0,236.46,49.93Z"/><path class="cls-1" d="M226.67,61.92,225,43.21a1.44,1.44,0,0,0-1.37-1.31l-2.3-.11h-.09l-2.3-.11a1.44,1.44,0,0,0-1.49,1.18l-3.41,18.46a1.46,1.46,0,0,0,0,.67l4,13.49a1.46,1.46,0,0,0,1.4,1h.15l.15,0h.09a1.44,1.44,0,0,0,1.41-.9l5.26-13.05A1.46,1.46,0,0,0,226.67,61.92Z"/><path class="cls-6" d="M141.64,14.52s5.12-2.11,12,3c5.34,3.91,12.12,10,19.75,15.89,7,5.41,12.3,7.19,13.42,12.59"/><path class="cls-3" d="M259.55,37.83l27.26-22.25a3.52,3.52,0,0,1,4.4.19h0c1.3,1.14,1,6.3.49,8.24-1,4.2-6.16,14.34-8.77,24.78-2,7.81-1.39,16.11-2.66,20.46-.44,1.5-2.09,1.82-2.79.57-3.85-6.88-6.6-17-18.83-25.61C256.76,42.88,257.54,39.2,259.55,37.83Z"/><path class="cls-1" d="M195.5,40.39a32.93,32.93,0,0,1,3.16,5,.77.77,0,0,0,1.45-.06l5-3.39s-5.08-.12-5.78-.27A36.65,36.65,0,0,1,195.5,40.39Z"/><path class="cls-3" d="M267.55,127.22c-6.09-4.55-12.27-1.47-17.62,2.6-3,4.5-6.1,8-9.4,8.9-11.73,3.17-27.7-2.23-47-4.83a15.34,15.34,0,0,1-11-6.62h0a29.37,29.37,0,0,1-3.11-5.79c-2.48-4.09-6.33-9.44-11.24-13-3.94-2.88-8.6-2.81-13-1.42,3.24,15.49,14.31,32.51,35.35,37.46l23,1.51,3.95-2.08,4.62,2.64,23,1.5c12.37.23,21.45-8.05,27.27-18.31A17,17,0,0,1,267.55,127.22Z"/><path class="cls-3" d="M189.63,72.84c-.1-.4-.2-.86-.3-1.36a28,28,0,0,0-2.2-7,1.71,1.71,0,0,0-3.2.44l-1.08,5.63a1.71,1.71,0,0,0,.3,1.33,16.76,16.76,0,0,1,1.12,1.74l3.44,6.15a1.71,1.71,0,0,0,3.18-1.12C190.85,78.59,190.36,75.79,189.63,72.84Z"/><path class="cls-3" d="M254.79,66.88a1.71,1.71,0,0,0-1.88.72,33,33,0,0,0-3.43,7.46l-.2.59c-1,2.86-1.76,5.6-1.79,5.72a1.71,1.71,0,0,0,3.06,1.42l4-5.81a17,17,0,0,1,1.27-1.62,1.72,1.72,0,0,0,.38-.71l.07-.28a1.68,1.68,0,0,0,.05-.51l-.27-5.41A1.71,1.71,0,0,0,254.79,66.88Z"/><path class="cls-5" d="M208.7,64.91l-1.47-4.68-1.42-4.69-2.88-9.35c-1-3.12-2-6.2-3-9.28l-.82-2.3-.9-2.27c-.3-.76-.64-1.49-1-2.24s-.75-1.44-1.11-2.18a39,39,0,0,1,4.63,8.67c1.26,3,2.33,6.13,3.32,9.25s1.86,6.28,2.62,9.46l1.11,4.78C208.09,61.69,208.45,63.29,208.7,64.91Z"/><path class="cls-5" d="M208.7,64.91l.08-4.84c0-1.61.07-3.22.07-4.83,0-3.22,0-6.43-.07-9.64s-.26-6.41-.62-9.59a37,37,0,0,0-.8-4.72,16.93,16.93,0,0,0-1.62-4.51c2,2.63,2.73,5.93,3.31,9.1a67.35,67.35,0,0,1,.9,9.69c.07,3.24,0,6.48-.2,9.7-.11,1.61-.24,3.22-.4,4.83S209,63.31,208.7,64.91Z"/><path class="cls-1" d="M202.19,48.32c.34-.42.76-.3,1,.3,7.46,18.5,7.07,25,6.91,26.15L207.25,92c-.12.74-.47,1.25-.84,1.24h0c-.38,0-.67-.65-.69-1.44l-.51-17.71-3.39-23.77A2.84,2.84,0,0,1,202.19,48.32Z"/><path class="cls-1" d="M193.75,58.16a.78.78,0,0,1,1,.17c7.89,9.35,7.66,12.54,7.52,13.13L199.84,80a.81.81,0,0,1-.81.59h0a.81.81,0,0,1-.72-.73l-4.12-8.94-.77-11.72A.84.84,0,0,1,193.75,58.16Z"/><path class="cls-1" d="M243.95,60.52a.78.78,0,0,0-1,.08c-8.73,8.57-8.8,11.77-8.72,12.37l1.63,8.68a.81.81,0,0,0,.75.67h0a.81.81,0,0,0,.79-.66l4.94-8.52,1.86-11.59A.84.84,0,0,0,243.95,60.52Z"/><circle class="cls-1" cx="205.94" cy="142.41" r="0.63" transform="translate(54.01 341.44) rotate(-87.31)"/><circle class="cls-1" cx="204.71" cy="148.74" r="0.63" transform="translate(46.52 346.24) rotate(-87.31)"/><circle class="cls-1" cx="196.09" cy="146.64" r="0.63" transform="translate(40.41 335.63) rotate(-87.31)"/><circle class="cls-1" cx="206.16" cy="137.63" r="0.63" transform="translate(59 337.11) rotate(-87.31)"/><circle class="cls-1" cx="201.36" cy="142.9" r="0.63" transform="translate(49.16 337.32) rotate(-87.31)"/><circle class="cls-1" cx="193.99" cy="140.25" r="0.63" transform="translate(44.78 327.45) rotate(-87.31)"/><circle class="cls-1" cx="201.46" cy="135.82" r="0.63" transform="translate(56.33 330.68) rotate(-87.31)"/><circle class="cls-1" cx="196.61" cy="135.59" r="0.63" transform="translate(51.94 325.62) rotate(-87.31)"/><circle class="cls-1" cx="232.04" cy="149.49" r="0.63" transform="translate(-26.71 53.37) rotate(-12.41)"/><circle class="cls-1" cx="224.86" cy="147.67" r="0.63" transform="translate(-26.48 51.78) rotate(-12.41)"/><circle class="cls-1" cx="225.86" cy="142.48" r="0.63" transform="translate(-25.34 51.87) rotate(-12.41)"/><circle class="cls-1" cx="237.04" cy="149.24" r="0.63" transform="translate(-26.54 54.44) rotate(-12.41)"/><circle class="cls-1" cx="231.83" cy="144.56" r="0.63" transform="translate(-25.65 53.21) rotate(-12.41)"/><circle class="cls-1" cx="231.34" cy="138.17" r="0.63" transform="translate(-24.29 52.95) rotate(-12.41)"/><circle class="cls-1" cx="237.5" cy="143.02" r="0.63" transform="translate(-25.19 54.39) rotate(-12.41)"/><circle class="cls-1" cx="235.49" cy="138.37" r="0.63" transform="translate(-24.24 53.85) rotate(-12.41)"/><path class="cls-5" d="M247.71,83.64l-2.78.09c-6,.19-13.19,5.72-14.84,11.41l-.19.65c-1,3.46.35,6.11,3.49,6.81l2.72.61c4.54,1,11.27-2.34,14.92-7.42l4.69-5.29C256.85,88.91,251.8,83.51,247.71,83.64Z"/><path class="cls-7" d="M231.14,95.43a68.85,68.85,0,0,0-4.3,23.89c0,3.67,3.59,11.17-2.37,12.39-2,.42-4.82-.23-6.9-.32-2.41-.11-5.23.17-7.59-.36-5.64-1.25-3.74-5.23-2.83-8.71,2.25-8.66,1.29-16.9-2.11-25.07-.82-2-4.11-.09-3.36,1.7A36.64,36.64,0,0,1,205,114.18c-.11,4.52-1.9,8.34-2.51,12.66-1.21,8.59,9.28,7.67,14.86,7.93,5.78.27,14.53,1,14.22-7.31-.18-5.1-1.41-9.55-.82-14.74a71.78,71.78,0,0,1,3.57-16.48c.85-2.32-2.43-2.78-3.15-.82Z"/><path class="cls-7" d="M227.63,128h-.23l-10.12,1.18L207.54,127l-.11,0h-.12a4.67,4.67,0,0,0-2.49.54,3.09,3.09,0,0,0-1.66,2.33,2.87,2.87,0,0,0,1,2.49l.07.07.08.05,5.93,3.9,3.52,4.44.08.1.09.08a4.88,4.88,0,0,0,5.3.52,3.83,3.83,0,0,0,.39-.25l.1-.07.08-.09,3.93-4.1,6.26-3.32.09,0,.08-.06a2.82,2.82,0,0,0,1.16-3.12A4,4,0,0,0,227.63,128Z"/><path class="cls-2" d="M187.53,145.57c3.63,5.9,8.79,9.19,15.88,8.31a22.5,22.5,0,0,0,9.75-3.66,12,12,0,0,0,1.85-1.59c1.9-1.94.71-1.5,2.43.56,7.24,8.6,23.64,8.08,28.83-2.26,1-1.95-3-1.7-3.79-.17-3.43,6.82-11.07,6.08-17.18,3.47a11.75,11.75,0,0,1-5-3.91c-.88-1.05-1.78-2.29-3.27-2.4-3-.24-5.2,3.85-7.5,5.13-7.56,4.22-14.32,1.36-18.52-5.46-.91-1.47-4.56.23-3.48,2Z"/><ellipse class="cls-7" cx="198.06" cy="96.44" rx="6.66" ry="6.29"/><ellipse class="cls-8" cx="196.1" cy="94.53" rx="1.95" ry="1.84"/><ellipse class="cls-7" cx="236.63" cy="97.76" rx="6.66" ry="6.29"/><ellipse class="cls-8" cx="234.66" cy="95.84" rx="1.95" ry="1.84"/><path class="cls-7" d="M231.33,92.51a84,84,0,0,1,17.45.45c1.17.16,4.33-1.72,2.26-2a92.08,92.08,0,0,0-19.21-.49c-1.81.13-3.06,2.23-.5,2Z"/><path class="cls-7" d="M203,88.69a122.19,122.19,0,0,0-18.8,1.08c-1.77.25-3.06,2.4-.5,2a116,116,0,0,1,17.87-1c1.39,0,3.92-2,1.43-2.09Z"/><path class="cls-3" d="M141.41,336.47c-1.77,2.67-3.79,5.48-5.78,8.33,6.27-.18,12.61-1.15,17.3-3.69C152.93,341.1,147.81,339,141.41,336.47Z"/><path class="cls-3" d="M155.75,240.25c8.52,1.24,25.45,2.78,35.23-2.53,0,0-28.59-11.58-35.16-13.79C155.8,229.38,155.79,234.81,155.75,240.25Z"/><path class="cls-3" d="M152.93,294.59c8.7,1.22,25,2.55,34.59-2.62,0,0-24-9.7-33-13C154.08,284.16,153.58,289.38,152.93,294.59Z"/><path class="cls-3" d="M147.55,323.13c9,.86,21.46,1,29.31-3.24,0,0-15.45-6.26-26.25-10.45Q149.32,316.31,147.55,323.13Z"/><path class="cls-3" d="M155.16,267c9,1.1,23.58,1.85,32.35-2.91,0,0-22.08-8.95-31.89-12.61C155.53,256.62,155.39,261.79,155.16,267Z"/><polygon class="cls-9" points="199.46 434.83 339.19 376.06 130.73 313.06 2.34 370.68 199.46 434.83"/><polygon class="cls-10" points="339.19 366.63 339.19 376.06 199.46 434.83 2.34 370.68 2.34 354.41 83.16 327.56 339.19 366.63"/><polygon class="cls-7" points="199.46 425.4 339.19 366.63 130.73 303.63 2.34 361.25 199.46 425.4"/><polygon class="cls-10" points="10.88 231.67 1.27 208.23 9.86 204.7 19.14 207.49 209.03 242.95 203.33 247.5 191.84 254.2 10.88 231.67"/><path class="cls-10" d="M207.33,431.16,10.21,367a3.39,3.39,0,0,1-2.34-3.22v-156a3.39,3.39,0,0,1,4-3.32L209,242.95a3.39,3.39,0,0,1,2.74,3.32V427.94A3.39,3.39,0,0,1,207.33,431.16Z"/><polygon class="cls-10" points="209.32 428.81 209.99 430.92 201.7 434.2 199 428.81 208.63 427.43 209.32 428.81"/><path class="cls-7" d="M199.46,434.25,2.34,370.1A3.39,3.39,0,0,1,0,366.88v-156a3.39,3.39,0,0,1,4-3.32L201.16,246a3.39,3.39,0,0,1,2.74,3.32V431A3.39,3.39,0,0,1,199.46,434.25Z"/><path class="cls-2" d="M269.21,134.22l-26.43,69.52a337.43,337.43,0,0,0-8.54,88.43c.76,21.13,1.25,42.9.3,47.3-2,9-14.1,18.8-6.66,26.25S237.8,369,237.8,369s2.87,3.39,6.53,3.39a12.64,12.64,0,0,0,6.4-1.83,29.89,29.89,0,0,0,7.05,1.83c3.13.26,6.27-4.31,6.27-4.31s4.57,1.18,5-1-2.35-16.58-3.53-22.07,25.74-117.27,25.74-126.67"/><path class="cls-7" d="M239.46,369.2a15.75,15.75,0,0,0,2.19-5.24c.19-.94.19-2.45.7-3s.93-1.32.27-1.75-1.83.54-2.22.94a5.9,5.9,0,0,0-1.64,3.44,13.93,13.93,0,0,1-1.83,5.48c-1.29,2.09,1.78,1.31,2.53.1Z"/><path class="cls-7" d="M252.3,371.18a15.75,15.75,0,0,0,2.19-5.24c.19-.94.19-2.45.7-3s.93-1.32.27-1.75-1.83.54-2.22.94a5.9,5.9,0,0,0-1.64,3.44,13.93,13.93,0,0,1-1.83,5.48c-1.29,2.09,1.78,1.31,2.53.1Z"/><path class="cls-7" d="M265.22,368.84c1-1.68,2-3.64,1.48-5.67-.36-1.45-1.45-2.53-2-3.89s-3.61.74-3.14,1.89,1.12,1.92,1.63,2.93a4.5,4.5,0,0,1-.5,4.63c-1.28,2.1,1.78,1.32,2.53.1Z"/><path class="cls-3" d="M247,328.64a58.65,58.65,0,0,0,19.71,7.29c.59-3.19,1.36-7.09,2.27-11.5C258.73,326.62,247,328.64,247,328.64Z"/><path class="cls-3" d="M285.13,250c-10.21,2.81-31.44,6.45-31.44,6.45A56.7,56.7,0,0,0,282,264.49c1.11-5,2.17-9.93,3.17-14.53Z"/><path class="cls-3" d="M253.69,279a58,58,0,0,0,23.4,7.8l2.86-13C269.08,276.35,253.69,279,253.69,279Z"/><path class="cls-3" d="M248.32,301.56a58,58,0,0,0,23.83,7.84c.91-4.2,1.87-8.6,2.86-13.1C264.11,298.85,248.32,301.56,248.32,301.56Z"/><path class="cls-9" d="M106.51,344.14a42.21,42.21,0,0,1-5.72-2.75,60.64,60.64,0,0,0-9.35-4.29,52.7,52.7,0,0,0-9.35-2A33.8,33.8,0,0,1,76.38,334a7.38,7.38,0,0,1-3.68-2.43,7.14,7.14,0,0,1-1.28-4.48c0-1.79,5.44-4.87,6-5.7,3.35-4.9,6.32-8.38,14-6.31s10.68,7.3,14,14.7a21.75,21.75,0,0,0,2.69,3.95c1.62,2.07,3.3,4.24,3.3,6.24C111.48,344,109.9,345.29,106.51,344.14Z"/><path class="cls-9" d="M83.94,308.68c-4.36-1.12-7.9-5.88-7.89-10.62s3.55-7.87,7.9-7,7.9,5.66,7.89,10.62S88.3,309.8,83.94,308.68Z"/><path class="cls-9" d="M72.87,318.36c-3.55-1-6.43-5.08-6.43-9s2.89-6.37,6.44-5.48,6.43,4.92,6.43,9S76.42,319.4,72.87,318.36Z"/><path class="cls-9" d="M112.62,333c-3.31-1-6-5-6-8.94s2.69-6.42,6-5.55,6,4.88,6,8.94S115.92,334,112.62,333Z"/><path class="cls-9" d="M101,317c-4.36-1.17-7.9-6.17-7.9-11.15s3.55-8.27,7.9-7.33,7.9,5.94,7.9,11.15S105.38,318.2,101,317Z"/></svg>