<?xml version="1.0" encoding="utf-8"?>
<!-- Generator: Adobe Illustrator 21.0.2, SVG Export Plug-In . SVG Version: 6.00 Build 0)  -->
<svg version="1.1" id="Layer_1" xmlns="http://www.w3.org/2000/svg" xmlns:xlink="http://www.w3.org/1999/xlink" x="0px" y="0px"
	 viewBox="0 0 750.1 905.8" style="enable-background:new 0 0 750.1 905.8;" xml:space="preserve">
<style type="text/css">
	.st0{fill:none;stroke:#FF487C;stroke-width:14;stroke-miterlimit:10;}
	.st1{fill:#FF5C82;}
	.st2{fill:#F8A136;}
	.st3{fill:#060068;}
	.st4{fill:#0454F9;}
	.st5{fill:#EF2657;}
	.st6{fill:#EDA89C;}
	.st7{fill:#F4C7BE;}
	.st8{opacity:0.1;}
	.st9{fill:#F14765;}
	.st10{fill:#F27D7E;}
	.st11{fill:#04DEF9;}
	.st12{fill:#75E8FB;}
	.st13{fill:#DB7F23;}
	.st14{fill:#EA8E2A;}
	.st15{fill:#FFB25F;}
	.st16{fill:none;}
</style>
<title>cortney-portfolio</title>
<g id="Layer_1_1_">
	<path class="st0" d="M64.2,536.4c0,0,14.3-12.7,28.5-11.9s14.8,12,13.5,19c-4.8,26.2-34.1,35.7-34.1,35.7"/>
	<polygon class="st1" points="76.7,613.7 7.9,613.7 0,490.4 84.6,490.4 	"/>
	<ellipse class="st1" cx="42.3" cy="490.4" rx="42.3" ry="15.3"/>
	<ellipse class="st1" cx="42.4" cy="613.6" rx="34.6" ry="12.5"/>
	<ellipse class="st2" cx="42.3" cy="490.4" rx="34.7" ry="12.5"/>
	<path class="st3" d="M12.3,496.7c6,3.7,17.2,6.3,30,6.3s24-2.5,30-6.3c-6-3.7-17.2-6.3-30-6.3S18.3,493,12.3,496.7z"/>
	<path class="st3" d="M284,175.7c47.8-9.2,120.4,52.9,223.7,51.5s235.3,34.1,241.8,53.1S695.8,492,687,517.8s-19.9,123.8-43.7,154.6
		s-210,150.7-227.3,150.7c-5.2,0-17.1,3.9-33-9.2c-36.5-30.3-89-89.5-135.3-103.4c-49.5-14.9-188.7-49.1-206.9-66.5
		s68.4-63.6,98.1-72.6s71.2-37.3,96.3-93.7c21.3-48-16.2-227.9,6.9-286.3C245,183.6,276.6,177.1,284,175.7z"/>
	<path class="st4" d="M248.2,186c37.6-15.7,118.1,49.7,221.5,48.3s235.3,34.1,241.8,53.1S657.8,499.1,648.9,525
		s-19.9,123.8-43.7,154.6s-200,135.7-217.3,135.7S276,737.6,209.6,717.6c-49.5-14.9-188.7-49.1-206.9-66.5s68.4-63.6,98.1-72.6
		s71.3-37.3,96.3-93.7S212.4,201,248.2,186z"/>
	<path class="st5" d="M341.1,38.3c0,0-9.8,0-17.5,10.5s-9.2,46.2-9.2,46.2s-1.1,16.8-2.5,27.2c-2,14.6-0.5,29.5,4.4,43.5
		c0.9,2.5,1.9,4.9,3.1,7.3c7,13.2,10.7,27.9,10.8,42.9c0.1,12.6-0.9,26.6-5.1,35.8c-9.2,20.1,26.4,56.2,27.8,53.9s21-5,24.9-14.6
		s33.1-40.6,34.5-47.5s-7-44-7-44L367.5,77.1L341.1,38.3z"/>
	<path class="st6" d="M393.9,200.1c0,0,4.7,31.4-7,50.4c-12,19.5-19.7,28.1-26.3,49.7c-4.4,14.6,4.9,41.9,21.1,56.6
		s-0.4,48.1-0.4,48.1l-6.9,58.6h144.1c0,0-17.8-103.3-11.2-127.2s11.8-60.8,9.7-68.5s-37.6-60.2-37.6-60.2l-24.1-71L393.9,200.1z"/>
	<path class="st6" d="M360,289c7.2-22.3,26.4-28.5,33.5-28.1c22.5,1.2,38.9,29.1,37.7,51.7C427,390.9,383,428.7,368.7,440
		c-2.4,1.9-5.2,3.3-8.1,4.2l-108.1,32.5l-2.1-31.8c0,0,74.7-40.3,81.6-47.7c5.6-6.1,25.5-24.2,27.5-44.7c0.5-4.7,0.4-9.4-0.2-14.1
		C357.6,324.3,357.9,295.4,360,289z"/>
	<path class="st7" d="M459.5,119.9c1.8,48.2-31.2,102.6-67.4,103.9c-28.1,1-61.8-51-63.6-99.2s4.5-86.5,61.3-88.6
		C450.9,33.9,457.7,71.7,459.5,119.9z"/>
	<path class="st5" d="M352.9,126.3c0,0-4.4-6.2-12-6.3s-11.3,2.8-11.4,3.8s2.1,0.8,4.2-0.2C338.3,121.5,346.9,126.8,352.9,126.3z"/>
	<path class="st5" d="M376.9,120.2c-1.9,0.5-5-0.1-3.1-2.5c2.4-2.9,9-5.6,16.6-6.8c12.7-2,19.5,0.3,19.8,1.5s-3.3,1.4-7.2,0.9
		C396.2,112.3,386,117.8,376.9,120.2z"/>
	<g class="st8">
		<path class="st9" d="M358.8,137.7c0,0-1.3,25.1-2.4,28.3s1.6,10.2,7.8,9.4s16.8-6.5,16.8-6.5"/>
	</g>
	
		<image style="overflow:visible;opacity:0.8;enable-background:new    ;" width="156" height="210" xlink:href="CEEF44937FCECF7B.png"  transform="matrix(0.2385 0 0 0.2389 349.17 133.55)">
	</image>
	<path class="st7" d="M359.8,136.7c0,0-1.3,25.1-2.4,28.3s1.6,10.2,7.8,9.4s16.8-6.5,16.8-6.5"/>
	<path class="st3" d="M380.1,130.7c-0.7-2.7-0.3-5.6,1.2-8c0.8-1.3,2-2.4,3.4-3.2c1.4-0.6,2.9-1,4.4-1.1c2.6-0.1,5.2,0.2,7.7,0.9
		c2.5,0.6,4.8,1.7,6.9,3.2l0,0c0.1,0,0.1,0.1,0.1,0.2c0,0.1-0.1,0.1-0.2,0.1l0,0c-2.4-0.5-4.7-0.8-7.1-1.1c-2.4-0.3-4.8-0.4-7.1-0.2
		c-1.2,0.1-2.3,0.3-3.4,0.7c-1.1,0.5-2,1.2-2.8,2.1c-0.8,0.9-1.4,1.9-1.8,3c-0.5,1.1-0.8,2.2-1,3.4
		C380.3,130.7,380.2,130.8,380.1,130.7C380.1,130.8,380.1,130.7,380.1,130.7L380.1,130.7z"/>
	<path class="st3" d="M336.2,138.8c-0.3-2.4,0.3-4.8,1.8-6.7c0.8-1.1,1.8-1.9,3-2.5c0.6-0.3,1.3-0.6,1.9-0.8
		c0.6-0.1,1.2-0.2,1.9-0.3c2.5-0.2,5.1,0.4,7.2,1.9c2,1.3,3.4,3.4,3.8,5.7v0.1c0,0.1,0,0.2-0.1,0.2c-0.1,0-0.2,0-0.2-0.1
		c-0.6-0.8-1.3-1.5-2.1-2.1c-0.8-0.6-1.6-1.2-2.5-1.6c-1.8-0.9-3.8-1.2-5.8-1c-2,0.1-3.9,0.9-5.3,2.4c-0.7,0.7-1.3,1.5-1.9,2.4
		c-0.5,0.9-1,1.8-1.3,2.7c0,0.1-0.1,0.1-0.1,0.1c-0.1,0-0.1-0.1-0.1-0.1L336.2,138.8z"/>
	<path class="st10" d="M360.4,184.4c0,0,6.8-1.5,11.1,0c2.2-2,5-3.2,8-3.5c7.8-0.9,15.5-2.7,22.9-5.2c0,0-4.2,11.6-14.9,16.4
		s-18.2,5.1-21.1,3S359.9,186.2,360.4,184.4z"/>
	<path class="st6" d="M523.6,500l-175,55.2c-12.5,4.9-22.8,14.2-29,26.2c-24.9,47.8-85.3,188.8-99.3,198.5
		c-17.4,12-85.6,40.6-71.4,60c7,9.5,119.6-12,135.1-22s-4.1-30.9,0.4-40.2c3.6-7.6,97.4-136,97.4-136s110-17.7,133.1-52.7
		S523.6,500,523.6,500z"/>
	<path class="st6" d="M422.3,479.9l-165,65.2c-12.5,4.9-22.8,14.2-29,26.2c-24.9,47.8-100.7,190.8-114.8,200.5
		c-17.4,12-59.8,47-51,55S147.5,808,163,798s4.5-32.1,9-41.5c3.6-7.6,113.4-135,113.4-135s105-17.7,128.1-52.6
		S422.3,479.9,422.3,479.9z"/>
	<path class="st3" d="M358.3,184.8c2.1,0.3,4.2,0.6,6.3,0.9c1,0.1,2,0.3,3,0.3c1,0.1,1.9,0.1,2.9,0.1h0.7l0.6-0.1
		c0.4-0.1,0.9-0.2,1.4-0.3c1-0.2,1.9-0.5,2.9-0.8c2-0.5,3.9-1.1,5.9-1.7s3.9-1.2,5.9-1.9c1-0.3,1.9-0.6,2.9-1s1.9-0.7,2.9-1.1
		c3.8-1.5,7.6-3,11.5-4.9l0,0c0.1,0,0.2,0,0.2,0.1c0,0,0,0.1,0,0.1c-3.3,2.7-6.8,5-10.7,6.8c-3.8,1.8-7.8,3.4-11.8,4.6
		c-2,0.6-4.1,1.1-6.1,1.6c-1,0.2-2.1,0.4-3.1,0.6c-1.1,0.2-2.1,0.2-3.2,0.2c-2.1-0.2-4.2-0.6-6.2-1.2c-2-0.6-4-1.3-6-2.1
		c-0.1,0-0.1-0.1-0.1-0.2c0,0,0.1-0.1,0.1-0.1L358.3,184.8z"/>
	<path class="st3" d="M532,279.8c-1.2-15.5-4.8-19.4-7.3-22.6c-6.5-8.4-26-44.9-33.1-44.9s-32,2.4-41.8,22
		c-3.8,7.7-27,73.1-46.1,65.9c-12-4.6-16.7-49.7-16.7-49.7s-19.1,19.4-28.7,34.7s-18,40.5,5.1,71.1c15.6,20.6,11.2,48.4,11.9,60.4
		l-11.6,73.1l155-8.4l-2.8-55.7c-1.1-21.7-2.7-43.3,6.7-62.9C535.4,335.8,533.9,305,532,279.8z"/>
	<path class="st3" d="M517.3,463.6c0.8,15.3,4.5,30.2,11,44.1c6.6,14.3,12.7,36.4,3.5,59.8c-22.1,56-81.2,68-107.6,68
		s-43.7,81.6-61.5,85.8s-81.4-5.8-112.1-33.8s-73.4-8-86.1-10s-20.4-30-22.5-44s63.9-59.8,99.9-118.9s132.4-45.4,132.4-45.4
		l141.7-33.6L517.3,463.6z"/>
	<polygon class="st11" points="334.2,569.4 473.9,510.7 265.5,447.7 137.1,505.3 	"/>
	<polygon class="st12" points="473.9,501.2 473.9,510.7 334.2,569.4 137.1,505.3 137.1,489 217.9,462.2 	"/>
	<polygon class="st11" points="334.2,560 473.9,501.2 265.5,438.2 137.1,495.9 	"/>
	<path class="st6" d="M457,247.8c1.9-23.4,19.2-33.8,26.2-35.1c22.2-4,54.3,17.7,58.3,39.9c16.3,90.7-11,184.5-11,184.5
		c-1.8,5.8-5.8,10.8-11,13.9l-106.5,59.6l-16.2-35.4c0,0,79.5-71.3,84.5-80.1c4.1-7.2-3.1-64-5.9-84.4c-0.6-4.7-1.8-9.2-3.4-13.7
		C467.1,284,456.4,254.4,457,247.8z"/>
	<path class="st6" d="M448.9,456.4c0,0-32.3,8.3-44.8,12.8s-43.1-15.6-66.4,20.4c-16.4,25.3-13,46.1,2,44.5s43.3-15.5,52.7-15.5
		s26.7-10.9,26.7-10.9L448.9,456.4z"/>
	<polygon class="st12" points="145.6,366.3 136,342.8 144.6,339.3 153.9,342.1 343.8,377.6 338.1,382.1 326.6,388.8 	"/>
	<path class="st12" d="M342.1,565.8l-197.1-64.2c-1.4-0.5-2.3-1.8-2.3-3.2v-156c0-1.9,1.5-3.4,3.4-3.4c0.2,0,0.4,0,0.6,0.1
		l197.1,38.5c1.6,0.3,2.7,1.7,2.7,3.3v181.7c0,1.9-1.5,3.4-3.4,3.4C342.7,565.9,342.4,565.9,342.1,565.8z"/>
	<polygon class="st12" points="344,563.4 344.7,565.5 336.4,568.8 333.7,563.4 343.4,562 	"/>
	<path class="st11" d="M334.2,568.8l-197.1-64.1c-1.4-0.5-2.3-1.8-2.3-3.2v-156c0-1.9,1.5-3.4,3.4-3.4c0.2,0,0.4,0,0.6,0.1
		l197.1,38.5c1.6,0.3,2.7,1.7,2.7,3.3v181.7c0,1.9-1.5,3.4-3.4,3.4C334.8,569,334.5,569,334.2,568.8z"/>
	<path class="st9" d="M323.6,54.9c0,0,13.7,30.3,30.2,43c11.2,8.7,38.4,18.4,54.7,23.8c8.9,2.9,17.1,7.5,24.4,13.4l11.5,9.3
		c9.1,7.3,13.6,18.9,11.9,30.4c-1.4,9.2-2.1,18.5-2.2,27.8c0,21.8,1.9,19.4,0,35.5s-3.3,39.7,6.4,47.8s22.4,9.5,20.5,3.8
		s-3.3-14.2-2.8-16.1s9,9,21.8,9.5c12.8,0.5-9.9-33.1,0-46.8s39.3-27.4,29.8-56.8s-11.3-44.5-7.1-64.6s-3.8-56-22.7-68.3
		s-14.7-16.2-37.9-33.7s-50.1-14.1-63.8-6.5c0,0-14.8-5.7-36.7,4.7S326,48.7,323.6,54.9z"/>
	<path class="st5" d="M380.5,25.9c6.9,8.2,14.5,15.8,22.6,22.8c7.8,6.6,16,12,24.2,15.4l0.8,0.3l1,0.4l2,0.9
		c1.3,0.6,2.6,1.2,3.9,1.8c2.6,1.2,5.2,2.5,7.8,3.9l3.8,2.2l3.8,2.3c1.3,0.8,2.5,1.6,3.8,2.4l3.7,2.6c5.2,3.7,10,7.8,14.4,12.3
		c1.1,1.2,2.3,2.4,3.4,3.7l1.6,2l1.6,2.1c2.1,2.9,4,5.9,5.7,9c3.4,6.3,5.7,13.2,7,20.2c0.6,3.2,1,6.4,1.2,9.6c0.1,1.5,0.2,3,0.3,4.4
		l0.1,2.6c0,1,0,1.8,0,2.7c-0.1,3.5-0.4,6.6-0.8,9.7s-0.8,5.8-1.4,8.6l-1.6,8.1l-1.7,7.8c-2.3,10-4,20.1-5.2,30.3
		c-0.3,2.5-0.5,5.1-0.6,7.6c-0.1,1.3-0.2,2.6-0.2,3.9s0,2.6,0,3.9c0,2.6,0.1,5.3,0.3,8c0,1.4,0.2,2.7,0.3,4.1
		c0.1,0.7,0.2,1.4,0.2,2.1l0.2,2.1l-1.8,0.9c-4.9-9.9-8.1-20.5-9.3-31.5c-1.1-10.9-1.1-21.9,0-32.8c0.4-5.4,1-10.9,1.5-16.2
		c0.6-5.3,0.9-10.7,0.8-16c0-1.3-0.1-2.6-0.2-3.9s-0.3-2.7-0.4-4c-0.3-2.7-0.7-5.3-1.2-7.9c-1-5.2-2.8-10.2-5.3-14.9
		c-4.9-9.3-12.5-17-20.8-23.8c-8.5-6.7-17.4-12.7-26.8-18.1c-2.4-1.4-4.7-3-6.9-4.7c-2.2-1.7-4.3-3.5-6.3-5.3s-4-3.8-5.8-5.9
		s-3.6-4.1-5.3-6.3c-3.3-4.4-6.4-8.9-9.1-13.7c-2.8-4.7-5.2-9.7-7.2-14.8L380.5,25.9z"/>
	<path class="st5" d="M392.6,19c7.4,6.1,16,10.6,25.3,13.1c2.1,0.6,4.2,1,6.4,1.4c2.1,0.4,4.2,0.6,6.3,0.7c2.1,0.2,4.2,0.2,6.3,0.2
		c0.3,0,0.5,0,0.8,0l1.1,0.1c0.8,0.1,1.5,0.1,2.3,0.2c1.5,0.2,3.1,0.4,4.6,0.7c6.2,1.1,12.3,2.9,18,5.6c5.7,2.6,11.1,5.9,16,9.7
		c2.4,1.9,4.8,3.9,7,6c2.2,2.1,4.3,4.3,6.2,6.5s3.9,4.5,5.6,6.8c1.8,2.3,3.4,4.7,5,7.1s3,4.8,4.5,7.2c0.4,0.6,0.7,1.2,1,1.8l0.5,0.9
		l0.3,0.6l0.4,0.7c1,1.9,1.8,3.8,2.5,5.8c1.2,3.5,2,7,2.5,10.7c0.4,3.3,0.5,6.3,0.6,9.2c0.2,5.7-0.1,10.8-0.2,15.7
		c-0.1,2.4-0.2,4.9-0.3,7.2l-0.2,7.1c-0.2,9.5,0.1,19,0.8,28.5c0.2,2.4,0.4,4.9,0.7,7.4s0.5,5,0.8,7.5c0.6,5.1,1.3,10.2,1.9,15.7
		l-1.8,0.9c-5-8.9-9.2-18.3-12.5-28c-3.2-9.8-5.5-19.9-6.7-30.1c-0.6-5.1-1-10.2-1.2-15.3s-0.4-10.2-0.7-15.2s-0.9-10-2.5-14.5
		c-0.4-1.1-0.9-2.2-1.4-3.2c-0.5-1-1.2-2.2-1.8-3.2c-1.2-2.2-2.5-4.3-3.9-6.4c-5.3-8.5-11.8-16.2-19.3-22.8c-3.8-3.2-7.9-6-12.2-8.4
		c-2.2-1.2-4.4-2.2-6.7-3.1c-2.3-0.9-4.6-1.7-7-2.3c-1.2-0.3-2.4-0.6-3.6-0.9l-3.7-0.7c-2.6-0.5-5.1-1-7.6-1.8
		c-5-1.5-9.9-3.5-14.4-6.1c-4.5-2.6-8.6-5.9-12.3-9.6c-1.8-1.8-3.5-3.8-5.1-5.9c-1.6-2.1-3-4.3-4.2-6.7L392.6,19z"/>
	<path class="st5" d="M342.1,38.4c6.5,9.6,12.4,15.6,18,18.9c2.6,1.6,5.3,3,8.1,4.2c3.3,1.6,6.9,3.2,10.7,5.1
		c7.6,3.8,16,8.2,24.3,14.7c2.1,1.6,4.2,3.4,6.1,5.3c2,2,3.9,4.1,5.7,6.3c1.9,2.4,3.4,4.9,4.7,7.7c1.4,2.8,2.1,5.9,2.2,9l-1.6,1.2
		c-3-3.5-6.7-6.4-10.9-8.6c-4.1-2.3-8.4-4.4-12.8-6.1c-8.8-3.7-17.8-7.2-26.5-11.4c-4.4-2.2-8.6-4.6-12.7-7.4
		c-4.1-2.9-7.7-6.5-10.6-10.6c-2.8-4.2-4.8-8.8-5.9-13.7c-0.3-1.2-0.5-2.4-0.7-3.7s-0.3-2.5-0.4-3.7c-0.2-2.5-0.1-5,0.2-7.4
		L342.1,38.4z"/>
	<path class="st13" d="M642.4,796.2L643,777l-0.4-0.1c-0.8-6.2-5.2-14.4-13.5-24.7c-9.5-11.9-21.2-23.1-25.6-27.3l-1.2-1.1l-2.2-4.2
		l-0.2-0.5c-0.3-0.6-1-1.9-11.3-5.7c-7.6-2.8-15.4-4.8-23.3-6c-7.8-1.3-15.5-3.1-23-5.4c-14-4-30-8.5-53.9-8.5
		c-15.3,0-32.2,1.8-51.7,5.5c-25.9,4.5-47.6,22.1-57.3,46.5c-7.9,19.5-7.5,40.7,1,52.8c3.4,4.9,9.7,8.8,18.7,11.8
		c21.2,9.7,43.9,13.5,67.5,14.1c19.3,0.6,38.6-0.1,57.8-2.1c7.4-0.8,14.2-1.6,21.7-1.3c9.8,0.3,19.6,1.4,29.4,2.1
		c5,0.4,10,0.4,15,0.1c4.5-0.3,9.2-1.4,13.6-1.3c1.7,0,4.7,1.3,6.6,1.7c3,0.7,4.6,0.2,7.9-1.1c1.7-0.5,3.1-1.6,4-3.1
		c0.2-0.3,0.7-2.2,0.9-2.3s2.3-1.3,1.1-0.3c0.4-0.4,0.9-0.5,1.3-0.9c1-1.2,1.9-2.5,2.6-3.9c0.7-2.2-1.2-4.5-3.1-6.4
		c0.5,0.2,1,0.4,1.4,0.6l0.1,0.1c1.7,1.3,6.8,5.4,12.6,5.4c1.3,0,2.6-0.2,3.8-0.7l4.8-1.7c0.6,0.1,1.2,0.2,1.8,0.2L642.4,796.2z"/>
	<path class="st2" d="M418.6,763.7c0,0-16.1,27.5-7.4,38.6c28.6,36.4,22.7,30.6,55.7,43.9c42.8,17.3,110.1-29.1,118.5-4.6
		c7,20.6-110.4,46.7-144.6,25.2c-30.5-19.2-30.7-10.7-56.8-49.2c-7.2-10.7-23.5-51.5,8.4-88.6"/>
	<path class="st14" d="M412.1,821.9c5.8,1.5,11.4,3.1,16.5,4.5c-4.9-5.5-9.3-11.5-13.8-17.3c-0.6-0.8-1.3-1.6-1.9-2.4
		c-4.2-1.2-8.2-2.6-12.2-4.3c-3.4-1-6.5-2-9-2.9c-5.7-2.2-7.4-3.9-8-5.6c-0.2-0.4-0.2-0.8-0.3-1.2c-3.2-4.3-6.1-8.9-8.4-13.7
		c-0.2-0.5-0.4-0.9-0.6-1.4c0,3.4,0.1,6.7,0.5,10.1l0.2,1.7c0,0.2,0.1,0.4,0.1,0.6C375.4,790.3,391.2,816.2,412.1,821.9z"/>
	<path class="st14" d="M497,872.9c2.4-0.2,4.9-0.4,7.3-0.6c-1-7.2-2.6-14.2-4.7-21.1c-1.3,0.1-2.7,0.3-4,0.4
		C496.5,858.3,496.9,867.5,497,872.9z"/>
	<path class="st14" d="M549.7,863.9c-1.3-6.3-4.5-11.3-5-8.5c-0.6,3.3-0.9,6.7-1,10.1C545.7,864.9,547.7,864.4,549.7,863.9z"/>
	<path class="st14" d="M455,847.5c-3,6.8-6,14-8.4,20.1c2,0.9,4,1.6,6,2.2C456,855.5,457.1,842.7,455,847.5z"/>
	<path class="st14" d="M562.7,852.8c0.4,2.1,4,0.2,4.7-8.2c-0.1,0,0.1-6.4,0.1-8.5c-2.3,0.2-4.6,0.5-6.9,0.9
		C560.9,842.3,561.6,847.6,562.7,852.8z"/>
	<path class="st14" d="M421.7,853.7c2.2,1.2,4.3,2.4,6.5,3.7c4.3-6.6,8.1-13.5,11.2-20.6c-0.8-0.5-1.7-1-2.5-1.6
		C432.2,841.6,427.1,847.8,421.7,853.7z"/>
	<path class="st14" d="M385.8,816.6c8.2-5.8,17.7-12.7,22-16.5c-0.2-0.5-0.3-1-0.5-1.5c-4.3,1.4-14.8,6.4-25.2,11.3
		c0.7,1.5,1.5,2.9,2.3,4.3C384.8,815,385.3,815.8,385.8,816.6z"/>
	<path class="st14" d="M422,819.8c-1-1.3-2.1-2.7-3.1-4c-2.7,1.8-5,3.3-6.7,4.4c-4.2,5.3-8.3,10.6-12.3,15.9c0.9,1,1.8,2,2.7,3
		C409.5,832.6,416.2,825.9,422,819.8z"/>
	<path class="st14" d="M473.5,850.2c-0.4,5.5-2.2,14.8-3.9,22.5c1.2,0.1,2.4,0.2,3.6,0.3c2.8-6.6,5.5-14.3,8-21.6
		c-1.1-0.1-2.2-0.2-3.3-0.4C476.4,850.8,475,850.5,473.5,850.2z"/>
	<path class="st14" d="M378.6,801.1c3.1-1.4,9.8-4.7,8.7-6.6c-0.6-1-7.1,0.7-10.3,0.9C377.5,797.4,378,799.3,378.6,801.1z"/>
	<path class="st14" d="M616.7,795.5c0,0,11.2,2.9,12.8,4.2s8,6.5,13.8,4.4l5.8-2.1l0,0c0,0,2,1.5,7-1s2.7-11.7,1.2-14.4
		s-9.8-10.9-18.1-11.6s-13-1.3-13-1.3L616.7,795.5z"/>
	<path class="st2" d="M595.7,717.6l-2.7-5.2c-0.3-0.6-15.2-7.7-33.4-10.4c-32.7-4.9-53.4-23.4-131-8.7
		c-58.5,11.1-72.1,74.5-55.9,97.4c9.8,14,46,18,66.5,15.8c18.5-2.1,48-2.1,49.7-3c2.3-0.7,4.6-1.5,6.9-2.4
		c1.4-0.6,19.3-10.7,22.3-12.2c1.9-0.4,4.9,5.6,6.4,4.8s91.4,5.1,110.3-16.1C646.9,764.1,596.7,718.8,595.7,717.6z"/>
	<path class="st13" d="M387.4,793.9c4.1,2.3,21.3,4.7,52,3.2c14.5-0.7,31.8-2.9,52.2-5.1c15.6-1.7,33-3.1,52.1-6
		c1.2-0.2-8-3.8-19.3-8.1c-6.3-2.4-13-5.8-19.4-8.1c-10.9-4-12.9,1.1-20.2-6.5c0.7-5.4-0.2-10.9-2.4-15.9c-2.3-4.8-6.4-8.7-10-12.4
		c-4.1-4.3-8-8.5-11.5-11c-1-0.8-2.8-0.4-4.3-0.7s-2.9-1.1-4.2-1.1c-2.4,0-2.1,0.8-4.2,1.2"/>
	<path class="st2" d="M381.5,796.8c4.1,2.3,18.5,11.9,46.8,16.9c13.4,2.4,30,3.1,49.9,2.7c14.7-0.3,31.3-0.8,49.9-3.6
		c1.4-0.2,11-0.1,23.7,0.7c7.3,0.5,15.5,1.7,23.7,1.8c8.4,0.1,16.6-1,23.7-1.8c0.6,0.3,1.1,1.3,1.7,1.5s1.5-0.4,2.2-0.2
		s1.1,1.1,1.8,1.3c1.7,0.3,3-0.7,4.3-1.1c1.5-0.5,3.1-0.7,4.1-1.7c1.2-1.2,1.4-3.1,1.9-4.1c0.6-0.4,1.7-0.2,2.2-0.6s0.4-1.5,0.7-2
		s1.4-0.8,1.6-1.4c0.6-2-1.3-4.2-3.6-6.3c-1.6-1.6-3.3-3.7-5.6-4.9s-5-1.3-7.2-1.8c-7.8-1.7-15.8-2.6-23.9-2.6
		c-8.1,0.1-16.5,1.4-24,2c-13.5,1.1-12.5,5.7-23.8,1.7c-3.1-6.2-8.4-10.4-14.1-14.2c-5.9-3.9-12.1-7.4-18.2-9.3
		c-10.9-3.5-12.6,3-20.4-3.6c0.7-6.3-0.6-12.7-3.7-18.3c-3.1-5.5-8.1-9.8-12.5-13.7c-7.6-6.9-6.3-7.1-14.4-11.7"/>
	<path class="st14" d="M519,812.6l-5.7,0.8c0,0,4.7-18.2,4.8-21.3s0.9-21.1,5.4-23s17.1-5.7,17.1-5.7l-3.5,26.8L519,812.6z"/>
	<path class="st14" d="M573.7,814.9l-18.8-0.5l5.7-13.8l43.1-8.5l15.8,3.4c0,0-14.3,7.2-20.7,9.1S573.7,814.9,573.7,814.9z"/>
	<path class="st13" d="M515.5,844.8c0,0-5.2,3-6.3,5.4s-3.5,13.1-3,15.2s2,11.1,2,11.1s29.2-8.4,31-8.8s3.6-6.8,4.5-9.2
		s6-20.2,6-20.2l-5.9,0.8L515.5,844.8z"/>
	<path class="st2" d="M617.6,791.8c-3.6,4.3-9.7,5.9-16.3,7.7c-5.4,1.4-11.3,3.3-17.6,4.8c-5.8,1.3-11.8,2.2-17.5,4.8
		c-3.6-1.3-8.6,8.4-14.2,20.4c-3.4,7.3-7.6,15.5-10.6,23.4c-3.8,10.1-6.2,19.6-7.9,24.4c-0.6,1.8-2.4,4.9-3.5,8.5
		c-0.9,2.9-1,6.2-2,9c-1,2.9-2.6,5.5-4.8,7.7c-0.5,0.4-0.8,1.5-1.7,1.9c-0.7,0.3-1.7-0.3-2.6-0.1s-1.4,1.1-2.3,1.2
		c0,0-0.5-0.5-0.5-0.5s0.8,0.3,0.8,0.3s-0.5-0.5-0.5-0.5c-0.8,0.1-1.5,1-2.2,0.9s-1.4-1-2.2-1.1s-1.7,0.5-2.4,0.3s-1.1-1.2-1.8-1.5
		s-1.7,0.2-2.3-0.2s-0.7-1.5-1.2-2c-0.2-0.2-1,0.2-1.2,0s0.2-1,0-1.2s-1,0.1-1.2-0.2c0-0.1,0.6-0.6,0.6-0.7s-0.8,0.3-0.9,0.3
		s0.6-0.6,0.6-0.7l-0.7,0.5l0.7-0.5l-0.7,0.5c-0.3-0.5,0.1-1.5-0.1-2s-1.3-0.8-1.5-1.4s0.5-1.4,0.4-2c-0.3-1.6-0.9-3.4-0.3-5.1
		c0.5-1.6,2.1-2.8,2.9-4.3s1.2-3.6,2.1-4.8l0.7,0.4l-0.8-0.4l0.8,0.4c1.3-2.5,1.5-4.8,2.2-6.5c1-2.5,2.3-4.1,2.5-6.4
		c0.2-1.8-0.6-4-0.5-6.9s1-10.7,2.3-21.3c0.7-6.2,1-13.6,2.9-21.3c1.6-6.6,4.5-13.2,7.2-20.2c0.4-1.1-0.2-3.7,0-6.7
		c0.1-2.1,1.1-4.3,1.3-6.5c0.2-2.5-0.2-5,0.3-6.6c0.6-1.8,5.3-4.7,10.1-8.6c3.3-2.6,6.5-6.1,9.9-8.8c4.8-3.7,9.4-6.4,10.5-8.1"/>
	<path class="st14" d="M525.2,891.3c-0.1-0.7,7.4-20.2,7.5-20.9c0.2-1,0.4-2.1,0.7-3.1c0.3-1.1-0.2-1.2-1.2-0.7
		c-0.6,0.3-0.9,1.5-1.5,2c-1,0.7-7.2,2.3-13.6,3.4c-9.9,1.6-12.6,10.5-12.9,10.6c-0.1,0.2-0.3,0.3-0.5,0.4c-0.2,0.4-0.3,0.9-0.5,1.3
		c0.1,0.2,0.2,0.5,0.1,0.8c-0.1,0.3-0.5,0.4-0.9,0.5c-0.2,0.3-0.5,0.7-0.7,1c0,0.5-0.1,1-0.3,1.4c-0.3,0.3-0.6,0.5-0.9,0.6
		c-0.2,0.6-0.2,1.3-0.1,1.9c0.2,0.9,0.4,1.7,0.4,2.6l0,0c0,0,0,0.1,0,0.1l0,0c0,0.2-0.3,0.7-0.2,0.9v0.2l0,0c0,0,0-0.2,0.2,0.1
		c0.4,0.5,0.8,0.7,1,1.4c0,0.2,0,0.3,0,0.5c0.2,0.1,0.3,0.2,0.4,0.4l0.1,0.1c0.3,0.2,0.5,0.5,0.5,0.9h0.1c0.4,0.2,0.6,0.6,0.6,1l0,0
		c0.2,0,0.4,0,0.5,0.1c0.7,0.4,0.7,1.5,1.2,1.8s1.6,0,2.3,0.3s0.9,1.1,1.5,1.2s1.6-0.3,2.4-0.2c0.6,0.1,1.2,0.9,1.7,0.9
		c0.3,0,0.5-0.1,0.7-0.2l0,0c0.5-0.4,1.1-0.6,1.7-0.5c0.1,0,0.3,0.1,0.4,0.2c0.6-0.5,1.4-0.8,2.2-0.8c1.6,0,1.1,0.5,2.1-0.7l0.6-0.7
		c0.1-0.2,0.2-0.5,0.3-0.7c0.2-0.2,0.4-0.4,0.7-0.5c0.6-0.8,1.2-1.7,1.7-2.5c0-0.4,0-0.8,0.1-1.2c0.3-0.6,0.7-1.1,1.1-1.6
		C524.8,892.8,525,892.1,525.2,891.3z"/>
	<path class="st2" d="M536.1,775.4L534,769c0,0,15.7-2.6,23-1s26.2,9.7,26.5,19.6s-8.3,9.7-8.3,9.7L536.1,775.4z"/>
	<path class="st14" d="M588.9,791.1c-4.8-1.5-9.9-5.2-13.3-12.5l-11.3-11.3l-1.9-0.1l-0.1-0.2c-2.8-5.9-3.9-14.1-3-22.5
		c1-8.8,4-17,8.6-23.2l13.2-11.5c-7.7-2.9-15.7-5-23.8-6.2l-1.6-0.3c-0.7,7.2-3.4,34.3-5.3,38.7c-7,16.8,5.7,23.9,7.5,31.7
		c1.5,6.3,14.5,13.8,20.2,18.4C581.7,791.8,585.3,791.5,588.9,791.1z"/>
	<path class="st13" d="M578.6,776.3c2.5-4,6.5-2.2,11,0.7s8,5.6,5.5,9.6s-8.1,4.9-12.7,2.1S576.2,780.2,578.6,776.3z"/>
	<path class="st2" d="M604,795.7c17.5,10.1,39.3-10.8,42.5-21.3c3.5-11.3,5.2-9.8,8.4-12.9c16.5-15.7,38.8-41.3,30.9-42.9
		c-2.9-0.3-5.8-0.2-8.6,0c-7.7,0.8-27.4,6.3-27.4,6.3c-3.3,1-11.7-3.2-14.5-5.6c-1.9-1.6-3.9-3.1-6.1-4.4
		c-2.7-1.7-10.9-6.3-13.9-7.5c-2.2-0.9-5.3-6-5.5-6.7c0,0-14.8-43.9-23.5-41.5l-0.3,0.3c-1.2,1-2,2.3-2.5,3.7l-7.4,32.6
		c-0.8,3.4-0.3,9-2.1,12c0,0-9.1,14.6-9.3,14.8c-8.8,10.1-13.5,34.4,3.7,50.1l14.6,8.8l4.5-0.8L604,795.7z"/>
	<path class="st14" d="M574.2,764.9c-1.7,1.2-2.8,3.1-3,5.2c-0.3,2.7,0.3,5.3,1.8,7.6c2.4,2.7,6,4.2,9.7,3.9c4.3-1.5,4.7-1.3,5-1.1
		s1.2,0.7,1.3,4.3c1.3,3,4,5.6,7.9,7.8c2,0.6,4.1,0.4,5.9-0.5c1.7-1,2.8-2.8,3-4.8l-3.6-8.6c-3.8-6.8-10.4-11.5-18-12.8L574.2,764.9
		z"/>
	<path class="st14" d="M627.1,756.7c-7,2.5-7,2-11.3,1.2c-1.5-0.3-3.1,0-4.4,0.9l0,0c-0.3,0.2-0.5,0.4-0.8,0.6
		c-3.3,2.8-5.8,6.4-7.3,10.5l-1.6,4.4c-0.8,2.1-3.4,2.8-5.5,1.4l-9.3-5.7c-2.1-1.3-2.7-4-1.2-5.6l2.5-2.5c3.5-3.6,5.9-8.1,6.9-13
		c0-0.2,0.1-0.4,0.1-0.6l0.1-0.6c0.1-1.3-0.1-2.6-0.8-3.8l-0.1-0.2c-0.2-0.4-0.5-0.8-0.9-1.2c-1.6-1.7-6.3-7-5.6-9.2"/>
	<path class="st15" d="M594.6,737.7l-1.9-1.8c-2.8-2.6-10.8-5.8-11.4-4.9l-1.4,4.3c-1.8,2.9,0.2,7.6,4.3,10.3l2.5,1.6
		c2.8,1.9,6.1,2.4,8.3,1.3l0.4-0.2C599.1,746.7,598.7,741.5,594.6,737.7z"/>
	<path class="st14" d="M562.2,736.6c-0.8,0-1.5-0.7-1.5-1.5c0-0.4,0.2-0.9,0.6-1.2l6.3-5c0.1-0.1,0.2-0.1,0.3-0.2
		c1.5-0.7,3.1-0.6,4.5,0.2l13,1.8c0.8,0.1,1.4,0.8,1.3,1.6s-0.8,1.4-1.6,1.3l0,0l-13.2-1.8c-0.2,0-0.4-0.1-0.6-0.2
		c-0.6-0.4-1.3-0.4-1.9-0.2l-6.2,4.8C562.9,736.5,562.5,736.6,562.2,736.6z"/>
	<path class="st14" d="M638,783.6c-0.1,0-0.2,0-0.3,0c-0.8-0.2-1.3-0.9-1.1-1.7c0,0,0,0,0,0l1.6-7.7c-0.1-0.7-0.4-1.3-1-1.6l-2-1.2
		c-0.8-0.5-1.5-1.2-1.9-2c0-0.1-0.1-0.1-0.1-0.2l-3.3-9.7c-0.3-0.8,0.1-1.6,0.9-1.9s1.6,0.1,1.9,0.9l3.3,9.6
		c0.2,0.3,0.4,0.6,0.8,0.8l2,1.2c1.5,0.9,2.4,2.5,2.5,4.2c0,0.1,0,0.2,0,0.3l-1.6,7.9C639.4,783.1,638.7,783.6,638,783.6z"/>
	<path class="st13" d="M642.3,725.5c1.5,0.5-3.1,0.5-4.5,1.7c-0.2,0.2-0.6,0.3-0.8,0.1c-0.2-0.1-0.2-0.3-0.2-0.5L636,722
		C638,723.4,640.1,724.6,642.3,725.5z"/>
	<path class="st14" d="M594.6,737.7l9.8-14.9c0.6-1,1.5-1.7,2.5-2.2c3-1.4,9.5-4.6,13-6.3c1.6-0.8,3.5-0.8,5.2-0.1
		c0.6,0.3,1.3,0.6,2,0.9c0.4,0.2,0.7,0.4,1,0.7l0.9,0.7c1.6,1.3,2.4,3.2,2.3,5.2l-0.2,2.9c0,0.1,0,0.3,0,0.4l-1.4,12
		c-0.2,1.4-0.7,2.6-1.7,3.6l-12.2,12.8"/>
	<path class="st14" d="M601.9,698.3c0,0-11.5-26.5-12.9-26.3l0,0c-1.5,0.2-2.7,1.3-3,2.8c-0.8,3-0.7,11.8-2.7,19.4
		c-1.5,5.9-1.6,7.5-2.3,10.8c-0.2,0.7,0.3,1.5,1.1,1.6c0.3,0.1,0.7,0,0.9-0.1c6.9-3.9,8-4,16.5-4.6c1.4,0.1,2.6-1.1,2.7-2.5
		C602.1,699,602,698.6,601.9,698.3z"/>
	<path class="st15" d="M625.8,734.6c1.2-1.9,2.5-3.7,3.8-5.5s2.8-3.5,4.2-5.2c1.5-1.7,3.1-3.3,4.7-4.8c1.6-1.5,3.4-2.9,5.3-4.1
		c-1.7,1.5-3.3,3-4.8,4.6s-3,3.2-4.5,4.9s-2.9,3.4-4.4,5L625.8,734.6z"/>
	<path class="st15" d="M624.8,734c1.9-3.3,4.1-6.4,6.2-9.5s4.5-6.1,6.9-9c-1.9,3.3-4.1,6.4-6.2,9.5S627.2,731.1,624.8,734z"/>
	<path class="st13" d="M633.8,726.5c0-0.4-0.3-0.5-0.7-0.2c-12.2,8.1-14.7,12.2-15,13l-5.5,11.6c-0.2,0.5-0.2,1,0,1.1l0,0
		c0.2,0.1,0.7-0.1,1-0.6l7.7-10.5l11.9-13C633.6,727.5,633.8,727,633.8,726.5z"/>
	<path class="st13" d="M623.3,730.7l5.6-12.6c0.2-0.5,0-1.1-0.4-1.3l-1.4-0.9H627l-1.4-0.9c-0.5-0.3-1-0.2-1.4,0.2l-8.8,10.6
		c-0.1,0.1-0.2,0.3-0.2,0.4l-2.2,10.1c-0.1,0.5,0.1,0.9,0.5,1.2h0.1l0.1,0.1h0c0.4,0.2,0.9,0.2,1.2-0.1l8-6.5
		C623.1,731,623.2,730.9,623.3,730.7z"/>
	<path class="st16" d="M585.6,670c0,0,4,0.5,6.7,6.2c2,4.4,4.2,10.7,7,17.2c2.5,6,5.3,9,4.1,12.9"/>
	<path class="st14" d="M653,727l25.4-4.5c1.2-0.1,2.3,0.6,2.8,1.7l0,0c0.4,1.2-1.6,4.4-2.6,5.5c-2.2,2.3-9.1,7-14.5,12.8
		c-4,4.3-6.6,9.8-9,12.2c-0.8,0.8-2,0.4-2-0.6c0-5.8,1.8-13.2-2.9-23.1C649.4,729.2,651.2,727.2,653,727z"/>
	<path class="st13" d="M611,705.8c0.2,1.4,0.3,2.9,0.2,4.3c-0.1,0.3,0.1,0.6,0.4,0.7c0.2,0,0.4,0,0.6-0.2l4.4-0.4
		c0,0-3.2-1.9-3.6-2.2C612.3,707.3,611.6,706.6,611,705.8z"/>
	<path class="st14" d="M626.2,787.2c-2.3-5.1-7.3-5.3-12.2-4.6c-3.5,1.8-6.8,3-9.2,2.3c-8.7-2.2-17-11.3-28.4-19.9
		c-2.7-1.9-4.4-4.9-4.7-8.2l0,0c-0.2-1.6-0.1-3.2,0.1-4.8c-0.1-4.2-0.9-8.4-2.6-12.4c-1.5-3.2-4.5-4.9-7.8-5.5
		c-3.5,11.1-2.4,26,9.3,36.6l14.2,9.2l3.3,0.1l2,3.3l14.2,9.2c7.8,4.6,16.6,2.5,24-2C627.4,789.6,626.7,788.4,626.2,787.2z"/>
	<path class="st14" d="M595.6,724.5c0.1-0.3,0.2-0.6,0.3-1c0.6-1.7,0.9-3.5,1.1-5.2c0-0.7-0.5-1.3-1.2-1.3c-0.4,0-0.8,0.1-1,0.4
		l-2.7,3.2c-0.2,0.3-0.3,0.6-0.3,1c0.1,0.5,0.1,1,0.1,1.5v5.2c0,0.7,0.5,1.3,1.2,1.3c0.6,0,1-0.3,1.2-0.9
		C594.3,728.6,595,726.7,595.6,724.5z"/>
	<path class="st14" d="M639.5,743.9c-0.4-0.4-1-0.5-1.5-0.2c-1.8,1-3.4,2.2-4.9,3.6l-0.3,0.3c-1.7,1.5-3.1,3-3.2,3
		c-0.5,0.5-0.5,1.3,0,1.8c0.4,0.4,1,0.5,1.5,0.2l4.6-2.3c0.5-0.2,0.9-0.4,1.4-0.6c0.2-0.1,0.4-0.2,0.5-0.3l0.2-0.2
		c0.1-0.1,0.1-0.1,0.2-0.2l1.8-3.6C640,744.9,639.9,744.3,639.5,743.9z"/>
	<path class="st15" d="M610.7,726.2c0.5-2.4,1-4.7,1.5-7s1-4.7,1.5-7s0.9-4.7,1.4-7l0.3-1.8l0.2-1.8c0.1-0.6,0.1-1.2,0.2-1.8
		s0-1.2,0.1-1.8c0.3,2.4,0.2,4.8-0.1,7.2c-0.3,2.4-0.7,4.8-1.2,7.1s-1,4.7-1.7,7S611.5,724,610.7,726.2z"/>
	<path class="st15" d="M610.7,726.2l3.5-6.2c1.2-2.1,2.3-4.1,3.4-6.2s2.1-4.2,3-6.4l0.6-1.6l0.5-1.7c0.2-0.6,0.3-1.1,0.4-1.7
		s0.1-1.2,0.2-1.8c0.2,2.4-0.2,4.8-1.1,7c-0.8,2.2-1.8,4.4-2.9,6.5c-1.1,2.1-2.3,4.2-3.6,6.2S612.2,724.4,610.7,726.2z"/>
	<path class="st13" d="M612.4,713.3c0.4-0.2,0.6,0.1,0.5,0.5c-1.8,14.5-4.4,18.5-4.9,19.2l-8,10c-0.3,0.4-0.8,0.6-1,0.5l0,0
		c-0.2-0.2-0.2-0.7,0.1-1.2l6-11.5l6.3-16.5C611.6,713.9,611.9,713.5,612.4,713.3z"/>
	<path class="st13" d="M603.5,716.6c0.3,0,0.5,0.2,0.6,0.5c1.7,8.8,0.4,10.8,0.1,11.1l-4.6,4.6c-0.2,0.2-0.5,0.2-0.7,0.1l0,0
		c-0.2-0.2-0.3-0.5-0.2-0.7l0.5-7.2l3.7-7.8C603,716.8,603.2,716.6,603.5,716.6z"/>
	<path class="st13" d="M634.8,736c-0.1-0.3-0.4-0.4-0.7-0.3c-8.7,2.4-9.8,4.4-10,4.8l-2,6.2c-0.1,0.3,0,0.5,0.2,0.7l0,0
		c0.2,0.1,0.6,0.1,0.7-0.1l6.2-3.7l5.3-6.8C634.9,736.6,635,736.3,634.8,736z"/>
	
		<ellipse transform="matrix(0.5267 -0.8501 0.8501 0.5267 -383.7134 860.9716)" class="st13" cx="581.3" cy="775" rx="0.5" ry="0.5"/>
	
		<ellipse transform="matrix(0.5291 -0.8486 0.8486 0.5291 -389.8255 860.153)" class="st13" cx="580.1" cy="781.3" rx="0.5" ry="0.5"/>
	
		<ellipse transform="matrix(0.5267 -0.8501 0.8501 0.5267 -386.731 853.9447)" class="st13" cx="573.4" cy="774.2" rx="0.5" ry="0.5"/>
	
		<ellipse transform="matrix(0.5267 -0.8501 0.8501 0.5267 -380.3022 861.1335)" class="st13" cx="583.1" cy="772.1" rx="0.5" ry="0.5"/>
	
		<ellipse transform="matrix(0.5267 -0.8501 0.8501 0.5267 -384.0621 857.7023)" class="st13" cx="578.1" cy="773.7" rx="0.5" ry="0.5"/>
	
		<ellipse transform="matrix(0.5267 -0.8501 0.8501 0.5267 -382.1742 852.4491)" class="st13" cx="574.4" cy="769.4" rx="0.5" ry="0.5"/>
	
		<ellipse transform="matrix(0.5291 -0.8486 0.8486 0.5291 -380.5879 857.8381)" class="st13" cx="582.6" cy="771.8" rx="0.5" ry="0.5"/>
	
		<ellipse transform="matrix(0.5267 -0.8501 0.8501 0.5267 -378.848 854.3143)" class="st13" cx="577.7" cy="767.3" rx="0.5" ry="0.5"/>
	
		<ellipse transform="matrix(0.2869 -0.958 0.958 0.2869 -330.9857 1132.954)" class="st13" cx="595.5" cy="788.8" rx="0.5" ry="0.5"/>
	
		<ellipse transform="matrix(0.2869 -0.958 0.958 0.2869 -330.2434 1126.4926)" class="st13" cx="591.5" cy="785.1" rx="0.5" ry="0.5"/>
	
		<ellipse transform="matrix(0.2869 -0.958 0.958 0.2869 -325.6187 1126.7705)" class="st13" cx="594" cy="782.1" rx="0.5" ry="0.5"/>
	
		<ellipse transform="matrix(0.2869 -0.958 0.958 0.2869 -330.2069 1137.2661)" class="st13" cx="598.7" cy="790.4" rx="0.5" ry="0.5"/>
	
		<ellipse transform="matrix(0.2892 -0.9573 0.9573 0.2892 -326.3089 1134.1785)" class="st13" cx="600.6" cy="786.8" rx="0.5" ry="0.5"/>
	
		<ellipse transform="matrix(0.2869 -0.958 0.958 0.2869 -321.2407 1131.0378)" class="st13" cx="599" cy="781.3" rx="0.5" ry="0.5"/>
	
		<ellipse transform="matrix(0.2869 -0.958 0.958 0.2869 -324.7496 1136.9563)" class="st13" cx="601.3" cy="786.6" rx="0.5" ry="0.5"/>
	
		<ellipse transform="matrix(0.2869 -0.958 0.958 0.2869 -320.9274 1134.6543)" class="st13" cx="601.6" cy="782.9" rx="0.5" ry="0.5"/>
	<path class="st15" d="M629,752.2l-1.8-0.9c-3.9-2-10.5-1-13.6,2l-0.3,0.3c-1.9,1.9-2,4-0.2,5.6l1.5,1.4c2.5,2.3,8.1,2.5,12.2,0.6
		l4.9-1.7C633,758.8,631.7,753.5,629,752.2z"/>
	<path class="st3" d="M627,755.5c-2.3,0.8-4.8,1.9-7.4,1.8c-1.8-0.1-4.2-1.3-6-1c-2.6,0.5-5.2,3.4-6.8,5.3c-1.7,2-3,4.2-4.1,6.6
		c-1.2,2.7-1.5,7.5-5.7,6.4c-2.4-0.6-5.7-3.3-7.7-4.7c-1.6-1.1-4.2-1.8-2.6-5c0.5-1,2.1-2.1,2.9-3c3.5-3.8,5.8-8.4,6.7-13.5
		c0.4-2.6,0.3-3.9-1.3-6.2c-1.7-2.4-6.3-5.7-6-9c0.2-1.8-2.4-1.4-2.5,0c-0.3,3.6,3,6.8,5.1,9.3c2.6,3.1,2.7,5,1.4,9
		c-1.2,3.7-3.3,7.1-6.1,9.9c-1,1.1-2.4,2.1-3,3.5c-1.3,3.1,0.8,5.2,3.1,6.7c4.3,2.9,12.4,9.8,15.9,2.5c2.4-4.8,4.7-14.9,11.2-15.2
		c1.8-0.1,3.7,0.8,5.6,0.8c2.5,0,5-1.1,7.3-1.9C628.6,757.3,628.8,754.8,627,755.5L627,755.5z"/>
	<path class="st3" d="M600.3,773.4L600.3,773.4h-0.2l-6.9-2.9l-5.5-4.8l-0.1-0.1h-0.1c-0.5-0.3-1.2-0.5-1.8-0.5
		c-0.7,0-1.5,0.3-1.9,0.9c-0.4,0.6-0.5,1.3-0.2,2v0.1v0.1l2.4,4.6l0.7,4.1v0.1v0.1c0.5,1.3,1.8,2.2,3.2,2.2h0.3h0.1h0.1l4-1.2
		l5.2,0.1h0.3c0.9-0.1,1.7-0.7,1.9-1.6C602.1,775.3,601.5,774,600.3,773.4z"/>
	<path class="st2" d="M568.3,770.6c0.3,4.9,2,8.7,6.6,10.8c2.1,0.9,4.5,1.3,6.8,1.2c2.1-0.1,3.2-1,4.5,1.2c2,3.7,3.6,6.6,7.5,9
		c3.7,2.2,7.6,1.8,11.2-0.5c1.7-1,0-2.5-1.4-1.6c-5.2,3.2-11.7-1-14-6c-0.7-1.5-0.3-4.2-2-5.1c-1.5-0.8-3.7,0.7-5.1,0.9
		c-6.7,0.7-11-4-11.4-10.3C571.1,768.7,568.2,769.4,568.3,770.6L568.3,770.6z"/>
	<path class="st3" d="M651.7,801.4c-2.8-2.9-6.4-6.1-10.4-7.1c-1.3-0.3-3,2.1-1.3,2.5c3.6,0.9,6.8,3.9,9.3,6.5
		C650.3,804.3,652.7,802.4,651.7,801.4L651.7,801.4z"/>
	<path class="st3" d="M659.2,799c0.3-2.2,0.2-4.3-1.8-5.5c-1.8-1.1-3.9-1.3-5.7-2.4c-0.8-0.5-3,1.5-2,2.1c1.6,1,3.4,1.3,5,2.1
		c2,1,2.3,2.7,2,4.8C656.5,801.4,659.1,800,659.2,799L659.2,799z"/>
	<path class="st3" d="M499.9,893.7c3.1-1,5.8-3,7.6-5.6c1.3-2-1.4-3.5-2.6-1.7c-0.9,1.3-2,2.4-3.4,3.2c-0.5,0.3-1,0.5-1.4,0.7
		c-0.1,0-0.8,0.3-0.2,0.1l-0.2,0.1c-0.9,0.2-1.6,1.1-1.6,2c0.1,0.8,0.8,1.3,1.5,1.3C499.7,893.8,499.8,893.7,499.9,893.7
		L499.9,893.7z"/>
	<path class="st3" d="M507,904c2.4,1.2,4.8,1.6,7.2,0.1c2.1-1.3,3.3-3.6,5.2-5.2s-0.1-3.8-1.9-2.3c-1.3,1.2-2.5,2.5-3.6,3.8
		c-1.4,1.5-2.6,1.7-4.5,0.7C507.6,900.2,505.2,903,507,904L507,904z"/>
	<path class="st3" d="M500.3,900.7c3.4,0.8,6.7,0.3,8.8-2.7c0.7-1.1,1.2-2.2,1.6-3.4c0.1-0.3,0.6-1,0.5-1.4c0-0.6,0.2-0.1,0.1-0.2
		c0.3,0.1-1.5,0.3-0.3,0.5s3.6-2.5,1.9-2.8c-2.5-0.4-4.2,1.9-5,4c-0.3,1-0.7,2-1.2,2.9c-0.9,1.1-2.7,0.6-4,0.3
		S499,900.4,500.3,900.7L500.3,900.7z"/>
	<path class="st14" d="M528.7,785.7l-2.4-4.2c-0.3,0.5-0.5,1.1-0.8,1.6c0,1,0,2-0.1,3.3c-0.2,1.6-0.7,3.2-1,4.8
		c0.1,0.1,0.3,0.3,0.4,0.4l13.2,6.7c0.7,0.5,1.8,0,1.8-0.1c0.3-0.7,0.1-1.6-0.4-2.2L528.7,785.7z"/>
	<path class="st14" d="M521.2,853.9c-7.6-5.6-6.2-16.9-6.2-16.9s-0.3,0.5-0.8,1.4c-0.5,5.1-1,10.2-1.5,15.2c2.1,2.3,6.3,2.8,9.8,4.7
		C523.6,859,524.4,856.2,521.2,853.9z"/>
	<path class="st14" d="M520.2,809.3c-1.2,3.2-2.2,6.5-3.1,9.8c0.1,0.2,0.2,0.5,0.4,0.7c1.8,3,6.3,5.9,10.1,8
		c1.1,0.6,2.3-0.7,1.6-1.7C524.7,820.3,521.4,812.3,520.2,809.3z"/>
	<path class="st14" d="M440.1,776.4c-5.9-0.7-11.9-0.8-17.9-0.2c-3,0.3-6,0.8-9,1.5c-3.1,0.8-6.1,1.9-8.9,3.3
		c-1.5,0.7-3,1.6-4.3,2.5c-0.7,0.5-1.4,1-2.1,1.6s-1.2,1-1.8,1.6c-2.4,2.1-4.4,4.6-5.9,7.3c-0.9,1.6-1.6,3.2-2.3,4.8
		c2.7,1.1,5.4,2.1,8.2,2.8l1.9-2.3c1.8-2.1,3.4-4.2,5-6.4l1.2-1.6c0.4-0.5,0.7-0.9,1.1-1.4c0.9-0.9,1.8-1.8,2.8-2.5
		c2.2-1.5,4.6-2.8,7.1-3.8c2.6-1.1,5.2-2.1,7.9-2.9c5.6-1.6,11.2-2.8,17-3.5V776.4z"/>
	<path class="st14" d="M375.6,741.6c0.5-0.6,1-1.2,1.4-1.8s1-1.2,1.4-1.8s0.9-1.2,1.4-1.8l0.7-0.9c0.2-0.2,0.4-0.5,0.6-0.7
		c2-2.1,4.3-3.7,6.9-4.9c2.8-1.3,5.7-2.5,8.7-3.4c3-1,6.1-1.8,9.3-2.5c6.4-1.4,12.8-2.6,19.3-3.3v-1c-6.7-0.6-13.3-0.6-20-0.2
		c-6.8,0.4-13.6,1.6-20.1,3.7c-0.6,0.2-1.2,0.4-1.8,0.7c-4.8,6.6-8.5,13.9-11,21.7L375.6,741.6z"/>
	<path class="st14" d="M384.9,767.4l2.1-2.2c0.7-0.7,1.4-1.5,2-2.2s1.4-1.5,2-2.2s1.2-1.4,1.9-2.1l1-1c0.3-0.3,0.6-0.6,1-0.9
		c1.5-1.2,3.1-2.4,4.8-3.3c6.9-3.9,15-6.7,23.2-8.9c8.4-2.2,16.9-3.9,25.5-5v-1.4c-8.8-1-17.7-1.1-26.6-0.4c-4.5,0.3-9,0.9-13.4,1.8
		c-4.5,0.9-9,2.2-13.2,4c-1.1,0.5-2.2,0.9-3.3,1.4l-1.7,0.8l-1.7,0.8c-1.1,0.5-2.2,1.2-3.3,1.9s-2.2,1.5-3.1,2.2
		c-3.8,2.8-7.1,6.2-9.8,10.1c-1.1,1.6-2.2,3.3-3.1,5.1c-0.1,5.3,0.6,10.5,2.1,15.6c4-4.2,7.8-8.1,11.6-11.9
		C383.5,768.8,384.2,768.1,384.9,767.4z"/>
	<path class="st14" d="M506.7,691.9c0.1,0.4,0.2,0.7,0.2,1.1c0.2,0.9,0.2,1.8,0.2,2.8c0,1.1,0,2.2-0.1,3.3c-0.1,1.1-0.2,2.3-0.5,3.5
		c-0.4,2.4-0.9,5-1.4,7.6l-1.7,8.1c-0.6,2.8-1.1,5.7-1.5,8.8l0.7,0.5c3.2-4.7,6-9.6,8.3-14.8c1.2-2.6,2.2-5.3,3-8
		c0.8-2.8,1.4-5.6,1.5-8.5c0.1-1,0.1-1.9,0-2.9c-2.8-0.6-5.6-1.1-8.7-1.6L506.7,691.9z"/>
	<path class="st14" d="M520.6,742.1l1.1,0.8c5.7-6.8,10.9-14.1,15.3-21.8c2.3-3.9,4.3-8,6.1-12.2c1-2.5,2-5.1,2.8-7.8
		c-3.3-0.8-6.6-1.7-10-2.7c-1.1,6.7-2.9,13.3-5.2,19.7C527.9,726.4,524.5,734.4,520.6,742.1z"/>
	<path class="st14" d="M438.5,804.7c0.5-0.5,1-1,1.5-1.5c0.3-0.3,0.6-0.5,0.9-0.7c0.7-0.6,1.5-1.1,2.3-1.5c0.9-0.6,1.9-1,2.9-1.5
		c1-0.5,2.1-1,3.3-1.4c2.3-0.9,4.8-1.7,7.3-2.6l7.9-2.6c2.7-0.9,5.5-1.9,8.3-3.1l0.1-0.8c-5.7-0.5-11.4-0.4-17,0.2
		c-2.8,0.3-5.7,0.8-8.4,1.5c-2.8,0.7-5.5,1.6-8.1,2.9c-1.3,0.7-2.5,1.5-3.7,2.4c-0.6,0.5-1.1,1-1.6,1.5l-1.4,1.6l-5.7,6.3l-1.6,1.8
		c-0.1,0.1-4.5,3.6-4.5,3.7c2.4,0.2,6.8,2,10.2,1.8C431.3,812.3,436.5,806.6,438.5,804.7z"/>
	<path class="st14" d="M509.5,791.1c-5.7,0.9-16.1,2.3-21.5,3.9c-2.7,0.8-7.8,5.9-10.2,6.9c-1.2,0.5-4.7,6.4-4.2,6.6
		c5.3,2.3,16.4-6.3,31.4-11C509,796.2,512.3,790.6,509.5,791.1z"/>
	<path class="st14" d="M481.9,708.7c1.5-4.4,2.4-8.9,2.7-13.5c0.1-1.8,0-3.7-0.3-5.5c-2.7-0.1-5.5-0.1-8.5,0c0,0.1,0,0.2,0.1,0.2
		c0.3,1.6,0.5,3.3,0.6,4.9c0.1,4,0,8-0.4,12c-0.1,2.2-0.3,4.4-0.4,6.7c-0.1,1.2-0.1,2.3-0.1,3.5s-0.1,2.4-0.1,3.7l0.7,0.4
		C478.6,717.2,480.5,713,481.9,708.7z"/>
	<path class="st3" d="M613.7,812.5c-1.4-1.7-3-3.3-4.7-4.6c-1.8-1.3-4.2-1.1-6.3-1c-1.8,0.1-1.6,3,0.3,2.8c1.8-0.1,3.4-0.1,4.8,1
		c1.3,1.1,2.5,2.3,3.6,3.6C612.6,815.7,614.9,813.8,613.7,812.5L613.7,812.5z"/>
	<path class="st3" d="M618.8,806c-2.3-3.1-5.9-4.8-9.7-4.8c-1.5,0-2.5,2.7-0.6,2.6c3.2,0,6.1,1.5,8,4.1
		C617.4,809.1,619.8,807.2,618.8,806L618.8,806z"/>
</g>
</svg>
